<svg width="1375" height="1143" viewBox="0 0 1375 1143" fill="none" xmlns="http://www.w3.org/2000/svg">
<path fill-rule="evenodd" clip-rule="evenodd" d="M505.064 0.373738C278.828 2.75974 33.6439 58.2517 2.45395 322.733C-24.6471 552.529 178.603 830.515 322.079 996.719C422.369 1112.9 521.369 1153.13 613.958 1140.37C579.969 1131.84 545.516 1106.72 510.934 1059.92C102.835 507.653 201.345 363.713 499.75 333.439C523.084 330.524 543.375 328.666 555.319 327.686C633.723 321.24 749.593 319.097 882.965 314.068C1080.7 306.611 1080.98 13.4497 883.241 6.03573C767.005 1.67773 641.295 -1.05226 505.039 0.386738L505.064 0.373738Z" fill="#0E85FF"/>
<path fill-rule="evenodd" clip-rule="evenodd" d="M1010.96 329.557C882.76 377.399 703.863 744.789 603.599 813.708C492.862 629.833 439.821 574.754 374.642 370.176C394.365 473.845 474.894 620.533 601.819 811.154C610.526 824.221 620.497 836.913 630.275 850.135C772.512 1042.63 914.156 871.186 1026.79 685.892L1026.83 685.453C1029.8 680.564 1032.71 675.856 1035.56 671.328C1057.31 634.966 1077.91 598.423 1097.17 564.331C1113.05 536.209 1128.01 509.751 1141.93 486.427C1193.82 399.489 1108.87 294.62 1013.5 328.612C1012.65 328.914 1011.8 329.225 1010.95 329.543L1010.96 329.557Z" fill="#0E85FF"/>
<path fill-rule="evenodd" clip-rule="evenodd" d="M1026.8 685.892C914.169 871.186 772.525 1042.63 630.287 850.135C620.51 836.914 610.539 824.221 601.832 811.154C474.906 620.533 394.377 473.845 374.654 370.176C373.764 367.403 372.887 364.591 371.998 361.753C372.359 361.585 372.733 361.418 373.094 361.263C372.927 360.192 372.759 359.135 372.604 358.077C182.782 420.56 168.478 596.451 510.958 1059.91C545.54 1106.71 579.994 1131.84 613.982 1140.36C801.095 1114.56 946.712 851.683 1026.82 685.892H1026.8Z" fill="#0E85FF"/>
<path fill-rule="evenodd" clip-rule="evenodd" d="M1026.8 685.892C914.169 871.186 772.525 1042.63 630.287 850.135C620.51 836.914 610.539 824.221 601.832 811.154C474.906 620.533 394.377 473.845 374.654 370.176C373.764 367.403 372.887 364.591 371.998 361.753C372.359 361.585 372.733 361.418 373.094 361.263C372.927 360.192 372.759 359.135 372.604 358.077C182.782 420.56 168.478 596.451 510.958 1059.91C545.54 1106.71 579.994 1131.84 613.982 1140.36C801.095 1114.56 946.712 851.683 1026.82 685.892H1026.8Z" fill="url(#paint0_linear_129_77)"/>
<path fill-rule="evenodd" clip-rule="evenodd" d="M1010.96 329.557C882.76 377.399 703.863 744.789 603.599 813.708C492.862 629.833 439.821 574.754 374.642 370.176C394.365 473.845 474.894 620.533 601.819 811.154C610.526 824.221 620.497 836.913 630.275 850.135C772.512 1042.63 914.156 871.186 1026.79 685.892L1026.83 685.453C1029.8 680.564 1032.71 675.856 1035.56 671.328C1057.31 634.966 1077.91 598.423 1097.17 564.331C1113.05 536.209 1128.01 509.751 1141.93 486.427C1193.82 399.489 1108.87 294.62 1013.5 328.612C1012.65 328.914 1011.8 329.225 1010.95 329.543L1010.96 329.557Z" fill="url(#paint1_linear_129_77)"/>
<path d="M1222.21 313.951C1306.17 313.951 1374.23 245.89 1374.23 161.934C1374.23 77.9771 1306.17 9.91675 1222.21 9.91675C1138.25 9.91675 1070.19 77.9771 1070.19 161.934C1070.19 245.89 1138.25 313.951 1222.21 313.951Z" fill="url(#paint2_radial_129_77)"/>
<defs>
<linearGradient id="paint0_linear_129_77" x1="955.559" y1="1267" x2="293.062" y2="-2.11986" gradientUnits="userSpaceOnUse">
<stop offset="0.1656" stop-color="#92C7FC"/>
<stop offset="0.2479" stop-color="#65A5E5"/>
<stop offset="0.4103" stop-color="#3D82C6"/>
<stop offset="0.6373" stop-color="#2268AE"/>
<stop offset="0.9175" stop-color="#125190"/>
<stop offset="1" stop-color="#053463"/>
</linearGradient>
<linearGradient id="paint1_linear_129_77" x1="779.489" y1="391.457" x2="508.104" y2="865.05" gradientUnits="userSpaceOnUse">
<stop offset="0.1656" stop-color="#CEE7FF"/>
<stop offset="0.2479" stop-color="#B7DBFF"/>
<stop offset="0.4103" stop-color="#91C8FF"/>
<stop offset="0.6373" stop-color="#3699FF"/>
<stop offset="0.9175" stop-color="#0E85FF"/>
<stop offset="1" stop-color="#0E85FF"/>
</linearGradient>
<radialGradient id="paint2_radial_129_77" cx="0" cy="0" r="1" gradientUnits="userSpaceOnUse" gradientTransform="translate(1054.43 268.168) scale(329.765 329.764)">
<stop/>
<stop offset="0.0678" stop-color="#02172C"/>
<stop offset="0.1636" stop-color="#053463"/>
<stop offset="0.2601" stop-color="#084D93"/>
<stop offset="0.3552" stop-color="#0A61BA"/>
<stop offset="0.4486" stop-color="#0C71D8"/>
<stop offset="0.54" stop-color="#0D7CEE"/>
<stop offset="0.6283" stop-color="#0E83FB"/>
<stop offset="0.7101" stop-color="#0E85FF"/>
</radialGradient>
</defs>
</svg>
